<svg width="33" height="33" viewBox="0 0 33 33" fill="none" xmlns="http://www.w3.org/2000/svg">
<path opacity="0.4" d="M14.9528 2.81037L7.44915 5.62084C6.01663 6.16656 4.84332 7.8583 4.84332 9.39997V20.4508C4.84332 21.5559 5.5664 23.0157 6.4532 23.6706L13.9569 29.2779C15.2803 30.2738 17.4495 30.2738 18.7729 29.2779L26.2766 23.6706C27.1634 23.0021 27.8864 21.5559 27.8864 20.4508V9.39997C27.8864 7.87194 26.7131 6.16656 25.2806 5.63448L17.7769 2.82401C17.0129 2.52387 15.7305 2.52387 14.9528 2.81037Z" fill="#F86764"/>
<path d="M20.0281 17.6131L17.8588 15.4439L19.9735 13.3292C20.3692 12.9336 20.3692 12.2787 19.9735 11.883C19.5779 11.4874 18.923 11.4874 18.5273 11.883L16.4127 13.9977L14.2434 11.8285C13.8478 11.4328 13.1929 11.4328 12.7973 11.8285C12.4016 12.2241 12.4016 12.879 12.7973 13.2746L14.9665 15.4439L12.729 17.6813C12.3334 18.077 12.3334 18.7319 12.729 19.1275C12.9337 19.3322 13.1929 19.4277 13.4521 19.4277C13.7113 19.4277 13.9706 19.3322 14.1752 19.1275L16.4127 16.89L18.5819 19.0593C18.7866 19.2639 19.0458 19.3594 19.305 19.3594C19.5642 19.3594 19.8234 19.2639 20.0281 19.0593C20.4237 18.65 20.4237 18.0088 20.0281 17.6131Z" fill="#F86764"/>
</svg>
